<svg width="21" height="12" fill="none" xmlns="http://www.w3.org/2000/svg"><path d="M20.578 10.567c-.056-.094-.401-.844-2.062-2.386-1.74-1.614-1.506-1.352.589-4.143 1.276-1.7 1.786-2.739 1.626-3.183-.152-.423-1.09-.311-1.09-.311l-3.12.018s-.23-.031-.404.071c-.167.102-.275.335-.275.335s-.494 1.316-1.153 2.435c-1.39 2.36-1.947 2.485-2.174 2.339-.528-.342-.396-1.374-.396-2.105 0-2.288.347-3.242-.676-3.489-.34-.082-.59-.136-1.458-.145-1.113-.012-2.057.004-2.59.264-.356.174-.63.562-.462.584.206.028.674.126.921.464.321.435.31 1.413.31 1.413s.184 2.693-.43 3.028c-.422.23-1-.239-2.239-2.382-.635-1.096-1.115-2.31-1.115-2.31S4.288.838 4.123.718c-.2-.147-.48-.194-.48-.194L.676.543S.231.556.068.749c-.146.173-.012.528-.012.528S2.38 6.711 5.008 9.451c2.413 2.51 5.151 2.346 5.151 2.346H11.4s.375-.042.566-.248c.176-.19.17-.545.17-.545s-.025-1.665.749-1.91c.761-.242 1.74 1.609 2.777 2.321.784.539 1.38.42 1.38.42l2.773-.038s1.45-.09.763-1.23z" fill="#202020"/></svg>