<svg width="60" height="60" fill="none" xmlns="http://www.w3.org/2000/svg"><path fill-rule="evenodd" clip-rule="evenodd" d="M13.095 28.436l1.025 2.395h-2.1l1.075-2.395zm3.175 4.154c-.097 0-.195-.05-.293-.05a1.028 1.028 0 01-.244-.146 1.02 1.02 0 01-.196-.293c-.097-.098-.146-.244-.244-.39l-1.808-4.447h-.244l-2.394 5.521h.342l.684-1.612h2.443l.195.537c.098.244.196.44.342.586.098.147.245.245.391.342.098.05.245.098.391.147h.635v-.195zm-.146-5.326v.195h.146c.294 0 .44.05.538.196.049.146.098.342.098.635v4.495h.781v-2.638h1.906v-.342h-1.906v-2.2h1.32c.341 0 .586.099.781.245.196.147.245.391.245.733h.195v-.635c0-.098 0-.196-.049-.244 0-.098-.049-.147-.098-.245-.048-.049-.146-.098-.195-.146-.098-.05-.244-.05-.39-.05h-3.372zm4.446 0v.195h.195c.245 0 .44.05.49.196.097.146.097.342.097.635v4.495h.782v-2.638h1.954v-.342h-1.954v-2.2h1.368c.293 0 .586.099.733.245.195.147.293.391.293.733h.146v-.879c-.049-.098-.049-.147-.097-.245-.098-.049-.147-.098-.245-.146-.097-.05-.195-.05-.342-.05h-3.42zm5.081 4.495c0 .195 0 .39.05.537 0 .098.048.196.146.294.049.048.098.097.244.146.098 0 .195.049.342.049h.782v-.195h-.147c-.244 0-.44-.098-.488-.245-.098-.146-.147-.342-.147-.586v-4.495h-.782v4.495zm2.639 1.026h.342v-4.397l3.616 4.446h.146v-5.57h-.342v4.104l-2.98-3.616a.985.985 0 00-.44-.342 1.419 1.419 0 00-.684-.146h-.538v.195h.098c.293 0 .489.05.635.196.098.146.147.342.147.635v4.495zm7.231-4.349l1.075 2.395h-2.15l1.075-2.395zm3.225 4.154c-.147 0-.244-.05-.342-.05-.098-.048-.147-.097-.244-.146a1.021 1.021 0 01-.196-.293c-.049-.098-.146-.244-.195-.39l-1.857-4.447h-.244l-2.394 5.521h.342l.733-1.612h2.394l.244.537c.049.244.195.44.293.586.147.147.245.245.391.342.147.05.244.098.391.147h.684v-.195zm4.104-4.789c.293.245.489.636.587 1.124h.195v-.293c0-.147 0-.244-.049-.342 0-.098 0-.195-.049-.293 0-.098-.048-.147-.097-.245a2.363 2.363 0 00-.733-.488 4.629 4.629 0 00-1.27-.196c-.44 0-.782.098-1.124.245-.294.146-.587.342-.782.586-.245.293-.44.586-.538.928-.097.342-.195.684-.195 1.124 0 .391.098.782.244 1.173.098.342.293.684.587.928.244.293.537.489.879.635.342.196.733.245 1.173.245.39 0 .781-.05 1.075-.098.342-.098.684-.244.977-.44v-1.856c0-.098.049-.196.098-.245a.381.381 0 01.195-.195c.049 0 .195-.05.293-.05v-.146c-.293 0-.537 0-.733.05-.195.097-.342.146-.44.243-.097.098-.146.196-.195.294v1.807a2.07 2.07 0 01-.586.196 2.96 2.96 0 01-.733.098 2.04 2.04 0 01-.782-.147c-.244-.098-.489-.244-.635-.44-.196-.195-.342-.488-.44-.83a4.26 4.26 0 01-.195-1.222c0-.342.049-.635.146-.928.05-.293.196-.587.342-.782.196-.244.391-.44.636-.586.244-.147.586-.196.928-.196.537 0 .928.098 1.221.342zm1.76-.537v.195h.146c.293 0 .44.05.537.196.049.146.098.342.098.635v4.495h2.834c.195 0 .293-.049.44-.147.097-.048.146-.146.195-.293l.293-.781h-.146c-.147.293-.294.537-.538.635-.195.146-.489.195-.88.195h-1.416v-2.247h2.198v-.342h-2.198v-2.2h1.514c.342 0 .587.099.782.245.147.147.244.391.244.733h.196v-.635c0-.098-.049-.196-.049-.244 0-.098-.049-.147-.098-.245a1.061 1.061 0 00-.244-.146c-.098-.05-.196-.05-.342-.05h-3.567z" fill="#fff"/><path fill-rule="evenodd" clip-rule="evenodd" d="M4.74 28.876v-.39c.048-.587.048-.294.146-.05.44 1.808 1.906 3.03 3.86 2.785-1.222-.586-1.857-1.807-2.932-2.687-.293-.244-.781-.586-1.026-.977-.146-.342.147-1.026.245-1.417 0-.146 0-.293.048-.44.098-.733.098-.293.098.05.293 1.905 1.564 3.175 3.567 3.175-1.27-.684-2.248-2.443-3.176-3.616-.489-.586.147-3.37.195-2.003.147 1.564 1.27 3.176 2.932 3.274.244 0-.586-.928-.88-1.515-.586-1.221-2.1-2.296-1.612-3.664.196-.587.538-1.71.489-1.075-.098 1.661.44 3.273 1.954 3.86.245.097 1.026.44.635.049-.684-.684-.83-1.564-1.172-2.395-.391-.781-1.32-1.71-1.026-2.491.146-.49.488-1.075.733-1.466.146-.342-.098.928-.05 1.368.147 1.075.685 2.003 1.564 2.54.147.098 1.124.587.83.245-.634-.684-.732-1.515-.976-2.394-.245-.636-.587-1.222-.83-1.906-.05-.098-.245-.39-.196-.44.048-.39.488-.83.684-1.123.049-.098.097-.196.195-.293.538-.88.098.195.049.684a3.4 3.4 0 00.244 1.563c.196.586.587 1.173 1.124 1.515.244.146.928.635.635.195-.635-.88-.586-2.296-.977-3.371-.049-.245-.537-1.124-.44-1.466.147-.44.978-1.466 1.417-1.759.098-.098-.098.147-.098.293-.097.196-.244.342-.293.538-.293 1.026-.048 2.345.538 3.127.244.293 1.221 1.026 1.075.781a1.713 1.713 0 01-.293-.684c-.245-1.075-.196-2.296-.391-3.273-.147-.586-.391-.977.049-1.417.39-.44 1.758-1.857 1.026-.684-.44.635-.489 1.563-.294 2.345.098.489.294.928.587 1.32.146.146.781.732.781.586-.146-.929-.146-2.004-.195-3.03-.098-.586-.44-1.954 0-2.345.489-.44.977-.83 1.515-1.173.097-.048-.098.147-.196.245-.049.097-.097.195-.244.342-.244.39-.342.733-.39 1.221-.196 1.173.146 2.248 1.025 3.03.196.146-.049-.587-.049-1.026.05-.538.196-.929.245-1.466.048-.782-.098-1.71.048-2.492.05-.44.733-.684.978-.83.293-.245.635-.49.977-.587.146-.098-.147.195-.293.342-.294.342-.587.635-.733 1.075-.342.83-.391 2.1.049 2.931.049.098.635 1.027.586.587-.244-1.417.44-2.834.635-4.251.049-.196.049-.782.196-.928.097-.098.977-.489 1.221-.587 1.222-.586-.537.782-.782 2.052-.048.587-.048 1.173.147 1.662.049.146.488.88.537.781.098-.39 0-.83.098-1.221.391-1.124.733-2.297 1.124-3.518.195-.782 1.466-.586 2.1-1.026-1.22.977-2.149 2.296-1.611 4.006 0 .147.342 1.026.342.636 0-1.222.879-2.053 1.221-3.127.244-.684.293-1.564.977-1.857.244-.098 1.32-.44 1.661-.489.098 0 .147.05 0 .196-.097.049-.195.097-.342.195a3.62 3.62 0 00-1.563 1.955c-.196.488-.293 1.074-.147 1.612.05.195.196.88.294.733.097-.196.097-.538.146-.733.293-.684.928-1.27 1.222-1.906.195-.293.293-.586.39-.781.343-.782.636-1.27 1.71-1.417.391-.05.831-.391 1.124-.147.098.098-.097.098-.244.098-.195.098-.39.195-.586.342-.538.293-.977.733-1.222 1.221-.342.538-.488 1.173-.488 1.857 0 .244.146.928.244.83.244-.293.244-.781.489-1.123.781-.977 1.465-1.955 2.15-2.932.293-.44 1.123-.44 1.856-.39.244 0 .489.048.635.048-.195.05-.39.147-.635.245-1.124.44-2.003 1.123-2.345 2.443-.05.195-.245 1.319 0 1.465.146.098.097-.293.146-.39.196-.343.44-.636.733-.929.538-.537.977-1.026 1.466-1.563.244-.294.538-.684.83-.978.392-.39 1.222-.293 1.955-.146.147 0 .39.049.489.049-.147.049-.342.097-.489.146-.83.245-1.515.538-2.15 1.32-.293.44-.586.928-.635 1.514V8.6c0 .147.049.196.147 0 .342-.781 1.123-1.123 1.71-1.612.293-.244.586-.635.928-.977.44-.489.977-.977 1.515-.88.146 0 .244.05.39.05.44.097.929.195 1.369.341-.489 0-.929.098-1.368.196a3.13 3.13 0 00-1.515.928c-.147.195-.293.342-.391.537-.195.294-.342.587-.39.88-.099.244-.245 1.075.048.635.098-.147.195-.244.342-.39.489-.49 1.222-.734 1.808-1.222.049 0 .049 0 .098-.05.635-.537 1.465-1.514 2.198-1.318.587.146 1.124.39 1.71.586-1.465-.196-2.785.44-3.518 1.661-.097.049-.244.44-.39.782-.098.244-.196.537-.098.586.049.05.049.05.098-.049.048 0 .097-.195.146-.244.147-.146.293-.244.44-.39.586-.343 1.221-.587 1.808-.93.586-.292 1.563-1.27 2.15-1.22.684.097 1.368.586 1.954.879-1.466-.293-2.932.049-3.811 1.172-.147.196-.782 1.124-.587 1.369.05.097.147-.147.245-.245.146-.146.293-.244.488-.342.538-.293 1.27-.44 1.857-.684.635-.293 1.612-1.075 2.297-1.026.635.098 1.368.733 1.856 1.026-1.417-.293-2.834-.244-3.86.88-.146.146-.83 1.075-.733 1.27.05.098.196-.146.293-.195.147-.098.343-.245.49-.342.634-.245 1.367-.245 1.954-.489.732-.195 1.612-.733 2.296-.782.489-.049 1.466 1.026 1.857 1.32-1.71-.587-3.811-.587-4.74 1.22-.098.148 1.32-.194 2.199-.292 1.368-.147 2.492-.977 3.567-.05.293.343.684.636 1.026.93-1.27-.636-2.736-.88-4.007-.05-.293.196-1.221 1.173-.782.978.733-.391 1.515-.196 2.346-.245 1.221-.097 2.443-.684 3.273.245.294.342.636.732.929 1.075-1.173-.684-2.541-1.124-3.91-.44-.292.195-1.318 1.075-.83.928.88-.293 1.76 0 2.688 0 2.15.049 2.59-.146 3.713 1.808-1.075-.83-2.443-1.612-3.909-.977-.195.049-1.221.586-1.221.83 0 .098.244-.097.342-.097.195 0 .39-.05.586 0 .733 0 1.32.244 2.003.39.733.098 2.101-.097 2.541.49.44.488.684 1.123.977 1.66-.977-.977-2.199-1.759-3.762-1.319-.244.098-1.222.44-1.27.733-.05.098.195-.049.342-.049.195-.049.39 0 .586.049.733.098 1.27.39 1.954.586.636.147 2.052.147 2.443.684.342.489.538 1.173.733 1.76-.977-.978-1.857-1.857-3.469-1.564-.244 0-1.32.244-1.368.537 0 .098.244 0 .342 0 .196 0 .391.05.586.05.684.195 1.222.634 1.857.83.635.244 1.955.293 2.297.88.341.537.44 1.319.586 1.954-1.075-1.71-2.688-2.59-4.74-1.71 1.124.097 1.76.732 2.688 1.221.586.342 1.905.586 2.247 1.124.293.488.245 1.417.342 2.003-.782-1.808-2.54-2.785-4.544-2.1 1.075.194 1.662.879 2.541 1.465.538.342 1.808.733 2.101 1.27.293.538.098 1.613.147 2.199-.684-1.906-2.053-3.176-4.3-2.736 1.026.342 1.515 1.075 2.394 1.71.538.489 1.612.928 1.955 1.563.244.391-.098 1.613-.098 2.101-.489-2.003-1.76-3.175-4.007-3.029.977.44 1.417 1.173 2.199 1.954.537.587 1.32 1.026 1.759 1.662.098.146-.049.342-.098.488-.049.587-.146 1.124-.244 1.71-.196-2.052-1.417-3.566-3.567-3.566 1.124.684 1.613 2.003 2.59 3.029.488.489.88.782.781 1.466-.048.537-.293 1.123-.39 1.71-.245-2.15-1.075-3.567-3.323-3.86 1.27.977 1.955 2.638 2.834 3.909.488.782-.147 1.759-.489 2.59.147-2.15-.635-3.86-2.785-4.3 1.173 1.026 1.662 2.882 2.346 4.202.44.83-.294 1.71-.733 2.443.293-2.101-.342-3.763-2.346-4.447.929 1.222 1.32 3.03 1.857 4.447.293.83-.488 1.612-1.026 2.296.538-2.052.196-3.713-1.759-4.74.586.88.538 1.857.782 2.883.146.684.83 1.857.488 2.492-.244.538-.733 1.026-1.172 1.466.684-1.954.537-3.616-1.32-4.74.685 1.173.685 3.274.88 4.691.098.88-.83 1.417-1.417 1.954.733-1.807.88-3.517-.88-4.837.44 1.27.245 3.176.392 4.593.048 1.075-.978 1.466-1.71 2.052 1.123-1.612 1.367-3.566-.196-5.032.244 1.026-.049 1.905-.196 2.931-.048.684.196 1.857-.097 2.443-.293.489-1.32.83-1.808 1.124 1.27-1.563 1.661-3.322.342-4.984.147 1.124-.244 1.906-.489 2.883-.146.782-.097 1.612-.342 2.394-.048.147-.244.098-.39.196-.538.244-1.075.488-1.564.733 1.417-1.417 2.052-3.127.782-4.935.146 1.612-.782 3.224-1.173 4.69-.244.977-1.466.83-2.296 1.27 1.71-1.172 2.54-2.882 1.514-4.885 0 1.172-.733 1.905-1.123 2.882-.196.538-.391 1.075-.636 1.613-.342.83-1.465.88-2.296 1.026 1.661-1.075 2.638-2.54 1.905-4.642-.244 1.417-1.416 2.834-2.1 4.055-.05.098-.05.147-.098.245-.342.586-1.075.635-1.808.684-.244 0-.44.049-.586.049.195-.098.342-.196.586-.293 1.417-.831 2.199-2.248 1.71-4.153-.342 1.026-1.075 1.856-1.71 2.736a3.14 3.14 0 00-.489.635c-.244.488-.44.977-.977 1.075-.44.097-.88.049-1.319.097-.195 0-.39 0-.586-.048.195-.05.39-.147.586-.245 1.564-.635 2.54-1.856 2.296-3.86-.488.977-1.123 1.417-1.905 2.248-.147.146-.244.342-.391.488-.733.88-.928 1.417-2.59 1.27-.244 0-.44-.097-.684-.097 1.955-.342 3.274-1.71 3.176-3.81-.39.878-1.123 1.22-1.856 1.856-.636.635-1.466 1.954-2.395 1.808a16.07 16.07 0 01-.684-.147 5.722 5.722 0 01-.977-.244c.342-.05.635-.05.977-.147 1.515-.39 2.59-1.368 2.737-3.225-.636.88-1.515 1.222-2.346 1.76-.097.097-.244.244-.39.341-.538.489-1.173 1.173-1.662 1.124-.635-.049-1.319-.39-1.857-.635 1.613 0 2.883-.586 3.518-1.808.147-.342.294-.733.343-1.221-.098.146-.245.244-.343.39-.928.782-2.003 1.075-2.98 1.808-.342.245-.88.636-1.27.587-.44-.05-.929-.342-1.368-.587a.517.517 0 01-.245-.097c-.44-.196-.195-.098.05-.098 1.954.244 3.566-.782 4.055-2.59-.978.977-2.444 1.124-3.616 1.71-.342.196-.928.587-1.32.587-.39-.098-.83-.489-1.172-.733-.147 0-.195-.098-.293-.098-.391-.244-.293-.244-.098-.146 1.906.44 3.665-.44 4.3-2.15-1.124.781-2.59.83-3.762 1.319-.343.147-.88.489-1.27.44-.343-.05-.831-.587-1.173-.831-.098-.098-.196-.147-.294-.244-.586-.44-.244-.245.05-.098 1.807.684 3.615 0 4.494-1.71-.928.635-1.954.488-3.029.733-.635.098-1.124.293-1.71.44-.733.146-2.736-1.76-1.661-1.173 1.661.88 3.42.098 4.446-1.27-1.221.537-3.225.44-4.593.586-.537.098-.586.098-.977-.244-.39-.294-.733-.782-1.075-1.124-.098-.147-.147-.245 0-.147 1.759 1.026 3.518.977 4.886-.635-1.368.44-3.127.147-4.642.147-.928.049-1.563-.929-1.905-1.71-.098-.196.049.048.146.048 1.564 1.27 3.372 1.417 4.886.05-1.368.195-2.54-.294-3.957-.44-.538 0-1.173 0-1.515-.343-.049-.097-1.466-2.198-.684-1.465 1.368 1.319 3.225 1.514 4.74.39-1.369.196-2.59-.586-3.91-.83-.488-.049-1.123-.098-1.367-.489-.147-.146-1.075-2.198-.636-1.563 1.173 1.466 3.127 1.856 4.74.88-1.466 0-2.492-.88-3.811-1.222-.44-.098-1.124-.196-1.32-.538-.195-.244-1.074-2.687-.39-1.71 1.026 1.564 2.736 2.297 4.544 1.466-1.417-.244-2.395-1.124-3.616-1.661-.39-.147-1.124-.391-1.32-.733-.195-.391-.195-1.026-.292-1.417v-.342c-.098-.489 0-.196.048 0 .88 1.759 2.541 2.443 4.447 1.906-1.32-.343-2.297-1.417-3.47-2.004-.341-.146-1.025-.44-1.172-.782-.195-.39-.098-1.026-.147-1.465v-.342c-.048-.587.05-.245.147.049.684 1.71 2.101 2.736 4.153 2.296-1.32-.44-2.15-1.564-3.225-2.345-.293-.196-.928-.587-1.123-.929-.196-.342 0-.977.048-1.368zm-.196-.44c-.049.49.049 1.466-.244 1.857-.587.83-1.368 1.564-1.906 2.394-.635.733-.88 1.662-1.71 2.199-.489.342 1.075.049 1.417-.147.733-.44 1.417-.977 1.857-1.71.244-.342.342-.684.39-1.075.05-.146.05-.293.098-.488 0-.05 0-.293.05-.245.146.098.048 1.32.048 1.564.098.244-.342.83-.537 1.075-.636.977-1.27 1.759-1.662 2.785-.146.39-.293.782-.586 1.124-.147.097-.586.39-.635.537-.05.147.244-.049.39-.049 1.222-.244 2.2-.977 2.786-2.1.244-.44.39-.929.488-1.466v-.44c0-.147-.097-.44-.049-.342.05.342.44 1.319.294 1.661-.098.44-.391.88-.587 1.27-.537.978-.977 1.857-1.319 2.932-.147.537-.39.977-.83 1.368-.196.244.928-.195 1.22-.342 1.027-.635 1.906-2.003 1.858-3.176 0-.146-.147-.782-.05-.928.098-.147.098.342.147.537.05.293.147.538.245.782.195.586-.391 1.466-.636 2.003-.537 1.368-.684 2.834-1.514 4.056-.05.048.88-.294 1.172-.489.929-.635 1.662-2.003 1.662-3.127 0-.342-.245-.782-.147-1.075 0-.147.049.196.098.342.049.196.146.391.244.586.293.587.049 1.124-.098 1.808-.342 1.173-.342 2.834-.781 4.007-.098.293-.684.977-.245.782 1.662-.831 2.492-2.785 2.004-4.642-.342-1.026.684.88.635 1.417-.147.977-.391 1.905-.489 2.931 0 .978.098 1.808-.293 2.688-.293.586.293 0 .44-.147.88-.733 1.319-1.661 1.417-2.785 0-.586 0-1.026-.196-1.466-.049-.244-.39-.83-.195-.586.342.342.635.782.88 1.173.146.146 0 .684 0 .88-.05 1.367.097 2.833 0 4.152 0 .342 0 .684-.098.977-.05.098-.245.342-.147.294 1.075-.098 1.612-2.297 1.661-3.079.05-.781-.684-2.296-.44-2.052 1.369 1.27.733 3.47 1.27 5.13.196.49.245.978.196 1.515 0 .196-.195.83-.049.635.098-.146.245-.244.342-.39 1.027-1.124 1.027-3.176.342-4.447a1.062 1.062 0 00-.244-.39c-.098-.098-.342-.392-.244-.294.537.244 1.173.977 1.32 1.71.243.977.341 2.003.585 2.883.196.635.489 1.173.538 1.808 0 .195-.147.88-.049.977.049.147.147-.244.244-.342a1.14 1.14 0 00.293-.44c.489-.88.489-2.003.245-3.029-.147-.586-.391-.977-.782-1.417-.147-.147-.537-.44-.342-.39.83.048 1.515 1.318 1.71 2.002.244.831.44 1.71.733 2.541.293.733.684 1.27.684 2.199 0 .782.684-.88.733-1.368.147-.929-.098-1.808-.489-2.59-.195-.342-1.319-1.32-.83-1.075.781.391 1.123.587 1.466 1.32.586 1.367 1.416 2.687 1.954 4.055.098.195.195.39.244.635 0 .147 0 .635.098.586 1.172-1.123.098-3.762-.586-4.593-.196-.293-.538-.537-.831-.732 0 0-.049 0-.049-.05.733.343 1.32.49 1.76 1.222.683 1.173 1.27 2.248 2.051 3.372.245.342.489.733.587 1.123.048.147 0 .538.097.489.342-.342.391-1.368.342-1.857-.098-.928-.586-2.1-1.319-2.687-.293-.195-.83-.39-1.075-.635 0-.05.147 0 .195.049.147 0 .294.097.44.146.782.293.977.293 1.466.977.391.587.83 1.075 1.27 1.613.489.586.978 1.172 1.417 1.759.196.293.587 1.124.587 1.026.39-1.808-.342-3.518-1.955-4.495h-.049c-.195-.147-.342-.196-.488-.245-.049-.048-.147-.048-.244-.097.293.049.488.097.732.146 1.27.342 1.613 1.222 2.737 2.297.88.88 1.758 1.514 2.296 2.54 0 .05.049.098.098.147A3.386 3.386 0 0030 58.143a4.412 4.412 0 00-1.221-1.856c-.294-.245-.587-.489-.88-.587-.342-.146-1.124-.39-.733-.293.538.049 1.173-.049 1.613.245.44.293.83.684 1.221 1.123.195.196.39.391.635.587.635.537 1.368.879 1.955 1.465.097 0 .097.05.195.147.244.342.635.88.635.684 0-.342 0-.684-.098-.977-.097-.44-.293-.929-.537-1.27a4.233 4.233 0 00-2.59-1.76c-.048-.048-.146-.048-.195-.097-.195 0-.147-.05 0-.05.342-.048 1.466.05 1.71.245.342.244.733.538 1.075.782.44.342.88.684 1.368.977.147.098.342.244.538.342.586.293 1.172.635 1.66 1.222.392.537.099-.294.099-.587-.098-1.075-.831-1.807-1.76-2.345a5.588 5.588 0 00-1.905-.684c-.098 0-.098-.049-.195-.049h.195c.733-.098 1.368.049 1.906.245 1.026.39 1.856 1.074 3.078 1.514.488.196.977.342 1.368.684.097.098.537.538.586.489.049-.098-.098-.391-.098-.489-.635-1.954-2.296-2.834-4.397-2.834.635-.195 1.32-.488 1.954-.244 1.124.489 2.2 1.124 3.42 1.417.49.098.978.244 1.418.537.146.098.586.538.635.44 0-.098-.098-.39-.147-.488-.684-1.857-2.638-2.541-4.593-2.395.587-.244 1.27-.635 1.906-.44 1.172.391 2.247.88 3.518 1.076.537.097.977.146 1.417.39.195.098.684.44.684.391a.868.868 0 00-.196-.488c-.88-1.808-2.834-2.297-4.788-1.955.44-.195.977-.586 1.466-.684.83-.146 2.052.44 2.931.587.978.195 2.004.049 2.834.39.636.294.636.196.196-.293-1.124-1.563-3.372-2.052-5.082-1.172.342-.196 1.124-.88 1.515-.88 1.368 0 2.736.489 4.202.245.782-.098 2.394.537 1.905-.05-1.416-1.66-3.37-1.66-5.276-.879.39-.293.781-.537 1.172-.88.196-.146.196-.341.44-.341 1.075-.147 2.296.049 3.371-.147.929-.146 1.857-.39 2.785-.146.44.146.196 0 0-.245-1.465-1.661-4.055-1.124-5.619 0 .342-.342.684-.586.978-.928.097-.147.342-.489.342-.293 0-.293.537-.245.781-.293.538-.05 1.026-.098 1.613-.147 1.124-.147 2.1-.635 3.224-.635.245-.05.88.049.88 0-.195-.587-1.612-.977-2.15-1.075-1.612-.147-2.54.489-3.615 1.32.342-.44.684-1.125 1.075-1.418.586-.39 1.66-.44 2.345-.635 1.075-.244 2.052-.83 3.176-1.026.097-.049.293-.049.488-.049.098 0 .391.098.342 0-.244-.537-1.71-.83-2.296-.782-1.71.05-2.59.83-3.665 2.004.342-.538.733-1.368 1.124-1.808.684-.635 2.15-.733 3.03-1.075 1.074-.489 1.807-1.222 3.126-1.222-2.052-1.221-4.25-.342-5.618 1.466.244-.488.44-1.221.781-1.612.587-.733 2.053-.929 2.883-1.417 1.026-.587 1.661-1.27 2.932-1.417-2.052-.928-4.398-.147-5.424 1.857.147-.391.342-1.222.586-1.564.343-.489 1.27-.88 1.76-1.173 1.27-.733 2.247-2.052 3.762-2.394-2.346-.782-4.398.587-5.228 2.639.146-.538.195-1.27.488-1.808.44-.782 1.76-1.27 2.443-1.955.88-.83 1.466-1.612 2.541-2.003-1.759-.488-3.371.391-4.349 1.808-.244.342-.293.782-.488 1.173.049-.538.147-1.124.244-1.662.098-.684 1.613-1.612 2.052-2.1.88-.978 1.368-1.955 2.541-2.59-2.492-.244-4.202 1.466-4.544 3.762.049-.586.098-1.124.098-1.759 0-.782 1.319-1.71 1.808-2.345.732-1.026 1.123-2.052 2.247-2.785-1.857 0-3.273 1.075-3.909 2.736-.146.39-.097.88-.244 1.27 0-.537-.244-1.514.049-1.954.44-.782.977-1.466 1.417-2.199.635-1.075.88-2.198 1.905-3.078-2.394.293-3.615 2.199-3.615 4.642-.05-.587-.391-1.564-.196-2.101.294-.782.782-1.515 1.173-2.346.586-1.123.635-2.296 1.661-3.175-1.661.342-3.078 1.71-3.273 3.469-.05.44.048.88.048 1.27-.146-.489-.293-1.026-.44-1.515-.048-.88.636-1.954.929-2.785.44-1.221.44-2.394 1.222-3.469-2.15.83-3.176 3.03-2.492 5.326-.245-.684-.831-1.466-.636-2.199.391-1.66.587-4.3 1.466-5.814-1.807.88-2.883 2.932-2.15 5.033.245.733-.195-.294-.342-.538-.39-.733-.342-1.221-.195-2.052.293-1.564.098-3.616.733-4.984-1.906 1.222-2.297 3.274-1.564 5.375-.293-.391-.586-.83-.88-1.222h.05c-.245-.146-.098-1.221-.098-1.563.098-1.661-.39-3.518.147-4.984-1.76 1.466-2.053 3.762-.782 5.717-.342-.391-.929-.83-1.173-1.32-.39-.781-.146-2.247-.244-3.175-.147-1.124-.538-2.052-.293-3.274-1.564 1.417-1.71 4.202-.147 5.717-.44-.342-1.026-.733-1.32-1.173-.488-.733-.341-2.199-.585-3.078-.294-1.124-.733-1.955-.587-3.225-1.368 1.612-1.368 4.202.342 5.668-.293-.244-1.27-.733-1.368-1.026-.342-.83-.488-1.808-.83-2.688-.489-1.123-1.124-2.052-1.124-3.469-1.417 1.906-.587 4.349 1.172 5.717-.44-.293-1.465-.635-1.71-1.124-.39-.782-.635-1.661-1.026-2.443-.537-1.172-1.221-1.954-1.417-3.322-1.026 2.003-.293 4.3 1.564 5.472-.489-.195-.977-.44-1.466-.635-.44 0-1.221-2.248-1.417-2.492-.635-1.124-1.514-1.808-1.759-3.127-.928 2.052.245 4.055 1.955 5.18-.636-.245-1.32-.294-1.76-.831-.586-.782-1.025-1.662-1.71-2.395-.048-.048-.097-.146-.195-.195-.684-.782-1.27-1.27-1.563-2.248a1.96 1.96 0 00-.147.733 2.37 2.37 0 000 .831c.147 1.173.928 2.199 1.906 2.883.293.146.586.342.928.488-.293-.097-.635-.195-.928-.195-.245-.049-.489-.098-.684-.098-.294 0-.978-1.026-1.222-1.368-.049-.049-.098-.098-.098-.147-.83-1.026-2.1-1.71-2.687-2.882a3.545 3.545 0 01-.244-.44c-.147.83-.05 1.612.244 2.248.489 1.123 1.564 1.954 2.687 2.394-1.417 0-1.954-.44-2.687-1.173-.244-.244-.538-.537-.83-.88-.978-.83-2.053-1.172-2.688-2.345 0 2.346 1.32 3.714 3.518 4.251-.293 0-.586 0-.928.049h-.587c-.39-.049-.88-.586-1.123-.782-.782-.537-1.613-1.026-2.395-1.563a6.564 6.564 0 01-1.66-1.417c.195 1.319.732 2.345 1.66 3.03.587.439 1.369.732 2.248.879-.44.048-1.075.244-1.466.195a2.555 2.555 0 01-.782-.293c-.684-.342-1.416-.977-2.003-1.27-1.026-.538-1.954-.733-2.834-1.613.245 2.248 2.199 3.323 4.447 3.371-.538.147-1.027.294-1.515.391-.586.147-2.052-.928-2.59-1.172-1.172-.538-2.296-.538-3.322-1.466.537 1.515 1.466 2.54 3.127 2.98.44.147.88-.049 1.368.05.537 0-.44.195-.635.292-.733.245-.977.098-1.71-.146-1.515-.44-3.714-.635-5.082-1.515.684 1.368 1.71 2.345 3.42 2.54.538.05.978-.195 1.515-.195.586 0-.488.294-.684.391-.635.342-.928.245-1.661.098-1.515-.293-3.811-.293-5.18-1.026.538 1.124 1.515 1.808 2.737 2.052.635.147 1.27.147 1.905-.049.147-.049.245-.146.44-.146.049 0 .244-.147.195-.05-.048.196-.293.196-.488.294-1.222.733-2.101.39-3.665.293-1.319-.098-2.443.196-3.566-.342.684 1.075 1.71 1.661 2.98 1.808.83.098 2.736-.733 2.101-.244-.342.244-.684.684-1.124.732-.83.098-1.759 0-2.638.098-1.32.098-2.394.44-3.616.098 1.32 1.515 3.616 1.857 5.326.782.049-.05.195-.196.293-.245.196-.049-.146.196-.195.196l-.733.733c-.44.488-1.515.44-2.15.488-1.564.196-2.932.929-4.446.587 1.172 1.221 3.371 1.612 4.837.635.342-.245.928-.733.635-.44-.147.147-.88 1.27-.88 1.075 0 .147-1.123.293-1.319.342-1.612.342-3.127 1.27-4.886 1.124.929.782 2.052 1.026 3.372.782.635-.147 1.123-.342 1.612-.782.098-.098.342-.293.44-.391-.587.635-.538 1.124-1.368 1.466-.929.39-2.004.586-2.883 1.123-.83.44-1.515.88-2.54.88 1.318.782 2.882.733 4.25-.049.391-.244.635-.684 1.026-.977.44-.342-.146.44-.244.684-.293.586-.635.733-1.27 1.075-1.466.684-3.03 2.003-4.74 2.247 1.368.684 2.932.44 4.153-.44.44-.293.586-.732.977-1.074.342-.293-.146.488-.195.733-.244.684-.586.83-1.173 1.221-1.368.83-2.882 2.394-4.495 2.883 1.613.342 2.932.146 4.153-.977.391-.44.538-.88.83-1.32.392-.44-.048.538-.097.782-.195.733-.44.929-1.026 1.32-1.27 1.026-2.638 2.687-4.153 3.273 1.612.342 2.98-.146 4.007-1.32.342-.39.44-.879.684-1.27.342-.488 0 .49 0 .733-.147.733-.391.978-.88 1.466C2.59 29.414 1.515 31.124.05 31.954c1.759.147 3.42-.781 4.153-2.345.098-.195.147-.44.195-.684.05-.195.147-.733.147-.489z" fill="#fff"/></svg>