<svg width="14" height="18" viewBox="0 0 14 18" fill="none" xmlns="http://www.w3.org/2000/svg">
<path d="M6.99968 0C3.346 0 0.373169 2.97283 0.373169 6.62688C0.373169 7.57999 0.56825 8.49001 0.952703 9.33186C2.60951 12.9574 5.78608 16.7851 6.72041 17.8718C6.79041 17.953 6.89247 17.9998 6.99986 17.9998C7.10726 17.9998 7.20931 17.953 7.27931 17.8718C8.21327 16.7853 11.3898 12.9577 13.0472 9.33186C13.4318 8.49001 13.6267 7.57999 13.6267 6.62688C13.6264 2.97283 10.6535 0 6.99968 0ZM6.99968 10.0689C5.10173 10.0689 3.55747 8.52464 3.55747 6.62669C3.55747 4.72856 5.10173 3.1843 6.99968 3.1843C8.89762 3.1843 10.4419 4.72856 10.4419 6.62669C10.4421 8.52464 8.89781 10.0689 6.99968 10.0689Z" fill="#202020"/>
</svg>
