<svg width="30" height="41" viewBox="0 0 30 41" fill="none" xmlns="http://www.w3.org/2000/svg">
<path d="M14.9994 0C6.72912 0 0 6.72912 0 15.0002C0 17.1576 0.441575 19.2175 1.3118 21.123C5.06206 29.3295 12.2524 37.9938 14.3672 40.4535C14.5257 40.6374 14.7567 40.7433 14.9998 40.7433C15.2429 40.7433 15.4739 40.6374 15.6323 40.4535C17.7464 37.9942 24.9367 29.3303 28.6882 21.123C29.5588 19.2175 30 17.1576 30 15.0002C29.9992 6.72912 23.27 0 14.9994 0ZM14.9994 22.7914C10.7033 22.7914 7.20781 19.2959 7.20781 14.9998C7.20781 10.7033 10.7033 7.2078 14.9994 7.2078C19.2955 7.2078 22.7909 10.7033 22.7909 14.9998C22.7914 19.2959 19.2959 22.7914 14.9994 22.7914Z" fill="#202020"/>
</svg>
