<svg width="24" height="14" fill="none" xmlns="http://www.w3.org/2000/svg"><path d="M23.786 12.367c-.064-.108-.463-.975-2.384-2.757-2.01-1.866-1.74-1.563.681-4.79 1.475-1.965 2.065-3.165 1.88-3.678-.175-.489-1.26-.36-1.26-.36l-3.606.021s-.267-.036-.467.083c-.193.117-.318.387-.318.387s-.571 1.52-1.333 2.814c-1.607 2.728-2.25 2.872-2.513 2.703-.61-.395-.458-1.587-.458-2.433 0-2.645.4-3.748-.781-4.033-.393-.094-.681-.157-1.685-.168-1.287-.013-2.377.005-2.994.306-.411.201-.728.65-.534.676.238.031.778.145 1.065.535.37.503.357 1.634.357 1.634s.213 3.112-.496 3.5c-.488.265-1.156-.277-2.588-2.753-.734-1.268-1.289-2.67-1.289-2.67s-.106-.261-.297-.401a1.495 1.495 0 00-.555-.224L.781.78s-.513.015-.702.24c-.168.2-.013.61-.013.61s2.685 6.282 5.724 9.448c2.789 2.903 5.954 2.713 5.954 2.713h1.434s.434-.048.654-.287c.204-.22.197-.63.197-.63s-.029-1.925.865-2.208c.881-.28 2.012 1.86 3.21 2.683.907.623 1.595.486 1.595.486l3.206-.044s1.677-.104.882-1.423z" fill="#F5F5F5"/></svg>