<svg width="60" height="60" viewBox="0 0 60 60" fill="none" xmlns="http://www.w3.org/2000/svg">
<path fill-rule="evenodd" clip-rule="evenodd" d="M13.0945 28.4365L14.1205 30.8306H12.0196L13.0945 28.4365ZM16.2704 32.5896C16.1727 32.5896 16.0749 32.5407 15.9772 32.5407C15.8795 32.4918 15.7818 32.443 15.7329 32.3941C15.6352 32.2964 15.5863 32.1987 15.5375 32.101C15.4398 32.0032 15.3909 31.8567 15.2932 31.7101L13.4854 27.2638H13.2411L10.8469 32.785H11.1889L11.873 31.1726H14.316L14.5114 31.7101C14.6091 31.9544 14.7069 32.1498 14.8534 32.2964C14.9512 32.443 15.0977 32.5407 15.2443 32.6384C15.342 32.6873 15.4886 32.7361 15.6352 32.785C15.7329 32.785 15.8306 32.785 15.9284 32.785C16.0749 32.785 16.1727 32.785 16.2704 32.785V32.5896Z" fill="white"/>
<path fill-rule="evenodd" clip-rule="evenodd" d="M16.1238 27.2638V27.4593H16.2704C16.5635 27.4593 16.7101 27.5081 16.8078 27.6547C16.8567 27.8013 16.9055 27.9967 16.9055 28.2899V32.785H17.6873V30.1466H19.5928V29.8045H17.6873V27.6058H19.0065C19.3485 27.6058 19.5928 27.7036 19.7883 27.8501C19.9837 27.9967 20.0326 28.241 20.0326 28.583H20.228V27.9479C20.228 27.8501 20.228 27.7524 20.1792 27.7036C20.1792 27.6058 20.1303 27.557 20.0814 27.4593C20.0326 27.4104 19.9349 27.3615 19.886 27.3127C19.7883 27.2638 19.6417 27.2638 19.4951 27.2638H16.1238Z" fill="white"/>
<path fill-rule="evenodd" clip-rule="evenodd" d="M20.5701 27.2638V27.4593H20.7655C21.0098 27.4593 21.2052 27.5081 21.2541 27.6547C21.3518 27.8013 21.3518 27.9967 21.3518 28.2899V32.785H22.1336V30.1466H24.088V29.8045H22.1336V27.6058H23.5017C23.7948 27.6058 24.088 27.7036 24.2346 27.8501C24.43 27.9967 24.5277 28.241 24.5277 28.583H24.6743V27.9479C24.6743 27.8501 24.6743 27.7524 24.6743 27.7036C24.6254 27.6058 24.6254 27.557 24.5766 27.4593C24.4789 27.4104 24.43 27.3615 24.3323 27.3127C24.2346 27.2638 24.1368 27.2638 23.9903 27.2638H20.5701Z" fill="white"/>
<path fill-rule="evenodd" clip-rule="evenodd" d="M25.6514 31.7589C25.6514 31.9544 25.6514 32.1498 25.7002 32.2964C25.7002 32.3941 25.7491 32.4918 25.8468 32.5896C25.8957 32.6384 25.9445 32.6873 26.0911 32.7361C26.1888 32.7361 26.2865 32.785 26.4331 32.785H27.2149V32.5896H27.0683C26.824 32.5896 26.6286 32.4918 26.5797 32.3453C26.482 32.1987 26.4331 32.0032 26.4331 31.7589V27.2638H25.6514V31.7589Z" fill="white"/>
<path fill-rule="evenodd" clip-rule="evenodd" d="M28.2899 32.785H28.6319V28.3876L32.2475 32.8339H32.3941V27.2638H32.0521V31.3681L29.0716 27.7524C28.9739 27.6059 28.7785 27.4593 28.6319 27.4104C28.4365 27.3127 28.241 27.2638 27.9479 27.2638H27.4104V27.4593H27.5081C27.8013 27.4593 27.9967 27.5081 28.1433 27.6547C28.241 27.8013 28.2899 27.9967 28.2899 28.2899V32.785Z" fill="white"/>
<path fill-rule="evenodd" clip-rule="evenodd" d="M35.5212 28.4365L36.5962 30.8306H34.4463L35.5212 28.4365ZM38.746 32.5896C38.5994 32.5896 38.5017 32.5407 38.404 32.5407C38.3063 32.4918 38.2574 32.443 38.1597 32.3941C38.062 32.2964 38.0131 32.1987 37.9642 32.101C37.9154 32.0032 37.8177 31.8567 37.7688 31.7101L35.9121 27.2638H35.6678L33.2737 32.785H33.6157L34.3486 31.1726H36.7427L36.987 31.7101C37.0359 31.9544 37.1825 32.1498 37.2802 32.2964C37.4268 32.443 37.5245 32.5407 37.6711 32.6384C37.8177 32.6873 37.9154 32.7361 38.062 32.785C38.1597 32.785 38.3063 32.785 38.404 32.785C38.5017 32.785 38.6483 32.785 38.746 32.785V32.5896Z" fill="white"/>
<path fill-rule="evenodd" clip-rule="evenodd" d="M42.8503 27.8013C43.1434 28.0456 43.3389 28.4365 43.4366 28.9251H43.632C43.632 28.8274 43.632 28.7296 43.632 28.6319C43.632 28.4853 43.632 28.3876 43.5832 28.2899C43.5832 28.1922 43.5832 28.0945 43.5343 27.9967C43.5343 27.899 43.4855 27.8502 43.4366 27.7524C43.29 27.6059 43.0457 27.4104 42.7037 27.2638C42.3617 27.1661 41.922 27.0684 41.4334 27.0684C40.9936 27.0684 40.6516 27.1661 40.3096 27.3127C40.0164 27.4593 39.7233 27.6547 39.5278 27.899C39.2835 28.1922 39.0881 28.4853 38.9904 28.8274C38.8926 29.1694 38.7949 29.5114 38.7949 29.9511C38.7949 30.342 38.8926 30.7329 39.0392 31.1238C39.1369 31.4658 39.3324 31.8078 39.6255 32.0521C39.8698 32.3453 40.163 32.5407 40.505 32.6873C40.847 32.8827 41.2379 32.9316 41.6777 32.9316C42.0685 32.9316 42.4594 32.8827 42.7526 32.8339C43.0946 32.7362 43.4366 32.5896 43.7298 32.3941V30.8306C43.7298 30.7329 43.7298 30.6352 43.7298 30.5375C43.7298 30.4397 43.7786 30.342 43.8275 30.2932C43.8763 30.1954 43.9252 30.1466 44.0229 30.0977C44.0718 30.0977 44.2184 30.0489 44.3161 30.0489V29.9023C44.0229 29.9023 43.7786 29.9023 43.5832 29.9511C43.3877 30.0489 43.2412 30.0977 43.1434 30.1954C43.0457 30.2932 42.9969 30.3909 42.948 30.4886C42.948 30.6352 42.948 30.7329 42.948 30.8306V32.2964C42.7526 32.3941 42.606 32.443 42.3617 32.4919C42.1663 32.5407 41.922 32.5896 41.6288 32.5896C41.3356 32.5896 41.0913 32.5407 40.847 32.443C40.6027 32.3453 40.3584 32.1987 40.2119 32.0033C40.0164 31.8078 39.8698 31.5147 39.7721 31.1726C39.6744 30.8306 39.5767 30.4397 39.5767 29.9511C39.5767 29.6091 39.6255 29.316 39.7233 29.0228C39.7721 28.7296 39.9187 28.4365 40.0653 28.241C40.2607 27.9967 40.4562 27.8013 40.7005 27.6547C40.9448 27.5081 41.2868 27.4593 41.6288 27.4593C42.1663 27.4593 42.5571 27.557 42.8503 27.8013Z" fill="white"/>
<path fill-rule="evenodd" clip-rule="evenodd" d="M44.6091 27.2638V27.4593H44.7557C45.0489 27.4593 45.1955 27.5081 45.2932 27.6547C45.342 27.8013 45.3909 27.9967 45.3909 28.2899V32.785H48.2248C48.4202 32.785 48.5179 32.7361 48.6645 32.6384C48.7622 32.5896 48.8111 32.4918 48.86 32.3453L49.1531 31.5635H49.0065C48.86 31.8567 48.7134 32.101 48.4691 32.1987C48.2736 32.3453 47.9805 32.3941 47.5896 32.3941H46.1727V30.1466H48.3714V29.8045H46.1727V27.6058H47.6873C48.0293 27.6058 48.2736 27.7036 48.4691 27.8501C48.6157 27.9967 48.7134 28.241 48.7134 28.583H48.9088V27.9479C48.9088 27.8501 48.86 27.7524 48.86 27.7036C48.86 27.6058 48.8111 27.557 48.7622 27.4593C48.7134 27.4104 48.6157 27.3615 48.5179 27.3127C48.4202 27.2638 48.3225 27.2638 48.1759 27.2638H44.6091Z" fill="white"/>
<path fill-rule="evenodd" clip-rule="evenodd" d="M4.73941 28.8762C4.73941 28.7296 4.73941 28.5831 4.73941 28.4853C4.78827 27.899 4.78827 28.1922 4.88599 28.4365C5.32573 30.2443 6.79153 31.4658 8.74593 31.2215C7.52443 30.6352 6.88925 29.4137 5.81433 28.5342C5.52117 28.2899 5.03257 27.9479 4.78827 27.557C4.64169 27.215 4.93485 26.5309 5.03257 26.1401C5.03257 25.9935 5.03257 25.8469 5.08143 25.7003C5.17915 24.9674 5.17915 25.4072 5.17915 25.7492C5.47231 27.6547 6.74267 28.9251 8.74593 28.9251C7.47557 28.241 6.49837 26.4821 5.57003 25.3094C5.08143 24.7231 5.71661 21.9381 5.76547 23.3062C5.91205 24.8697 7.03583 26.4821 8.69707 26.5798C8.94137 26.5798 8.11075 25.6515 7.81759 25.0651C7.23127 23.8436 5.71661 22.7687 6.20521 21.4006C6.40065 20.8143 6.74267 19.6905 6.69381 20.3257C6.59609 21.987 7.13355 23.5993 8.64821 24.1857C8.89251 24.2834 9.67427 24.6254 9.28339 24.2345C8.59935 23.5505 8.45277 22.671 8.11075 21.8404C7.71987 21.0586 6.79153 20.1303 7.08469 19.3485C7.23127 18.8599 7.57329 18.2736 7.81759 17.8827C7.96417 17.5407 7.71987 18.8111 7.76873 19.2508C7.91531 20.3257 8.45277 21.2541 9.33225 21.7915C9.47883 21.8892 10.456 22.3778 10.1629 22.0358C9.52769 21.3518 9.42997 20.5212 9.18567 19.6417C8.94137 19.0065 8.59935 18.4202 8.35505 17.7361C8.30619 17.6384 8.11075 17.3453 8.15961 17.2964C8.20847 16.9055 8.64821 16.4658 8.84365 16.1726C8.89251 16.0749 8.94137 15.9772 9.03909 15.8795C9.57655 15 9.13681 16.0749 9.08795 16.5635C9.03909 17.101 9.13681 17.6384 9.33225 18.127C9.52769 18.7133 9.91857 19.2997 10.456 19.6417C10.7003 19.7883 11.3844 20.2769 11.0912 19.8371C10.456 18.9576 10.5049 17.5407 10.114 16.4658C10.0651 16.2215 9.57655 15.342 9.67427 15C9.82085 14.5603 10.6515 13.5342 11.0912 13.241C11.1889 13.1433 10.9935 13.3876 10.9935 13.5342C10.8958 13.7296 10.7492 13.8762 10.7003 14.0717C10.4072 15.0977 10.6515 16.4169 11.2378 17.1987C11.4821 17.4918 12.4593 18.2247 12.3127 17.9804C12.1661 17.785 12.0684 17.5407 12.0195 17.2964C11.7752 16.2215 11.8241 15 11.6287 14.0228C11.4821 13.4365 11.2378 13.0456 11.6775 12.6059C12.0684 12.1661 13.4365 10.7492 12.7036 11.9218C12.2638 12.557 12.215 13.4853 12.4104 14.2671C12.5081 14.7557 12.7036 15.1954 12.9967 15.5863C13.1433 15.7329 13.7785 16.3192 13.7785 16.1726C13.6319 15.2443 13.6319 14.1694 13.5831 13.1433C13.4853 12.557 13.1433 11.1889 13.5831 10.798C14.0717 10.3583 14.5603 9.96742 15.0977 9.6254C15.1954 9.57654 15 9.77198 14.9023 9.8697C14.8534 9.96742 14.8046 10.0651 14.658 10.2117C14.4137 10.6026 14.316 10.9446 14.2671 11.4332C14.0717 12.6059 14.4137 13.6808 15.2932 14.4625C15.4886 14.6091 15.2443 13.8762 15.2443 13.4365C15.2932 12.899 15.4397 12.5081 15.4886 11.9707C15.5375 11.1889 15.3909 10.2606 15.5375 9.47882C15.5863 9.03908 16.2704 8.79478 16.5147 8.6482C16.8078 8.4039 17.1498 8.1596 17.4919 8.06188C17.6384 7.96416 17.3453 8.25732 17.1987 8.4039C16.9055 8.74592 16.6124 9.03908 16.4658 9.47882C16.1238 10.3094 16.0749 11.5798 16.5147 12.4104C16.5635 12.5081 17.1498 13.4365 17.101 12.9967C16.8567 11.5798 17.5407 10.1629 17.7362 8.74592C17.785 8.55048 17.785 7.96416 17.9316 7.81758C18.0293 7.71986 18.9088 7.32898 19.1531 7.23126C20.3746 6.64494 18.6156 8.01302 18.3713 9.28338C18.3225 9.8697 18.3225 10.456 18.5179 10.9446C18.5668 11.0912 19.0065 11.8241 19.0554 11.7264C19.1531 11.3355 19.0554 10.8958 19.1531 10.5049C19.544 9.3811 19.886 8.20846 20.2769 6.98696C20.4723 6.2052 21.7427 6.40064 22.3779 5.9609C21.1564 6.9381 20.228 8.25732 20.7655 9.96742C20.7655 10.114 21.1075 10.9935 21.1075 10.6026C21.1075 9.3811 21.987 8.55048 22.329 7.47556C22.5733 6.79152 22.6222 5.91204 23.3062 5.61888C23.5505 5.52116 24.6254 5.17914 24.9674 5.13028C25.0652 5.13028 25.114 5.17914 24.9674 5.32572C24.8697 5.37458 24.772 5.42344 24.6254 5.52116C23.8437 6.00976 23.3551 6.64494 23.0619 7.47556C22.8665 7.96416 22.7687 8.55048 22.9153 9.08794C22.9642 9.28338 23.1108 9.96742 23.2085 9.82084C23.3062 9.6254 23.3062 9.28338 23.3551 9.08794C23.6482 8.4039 24.2834 7.81758 24.5766 7.1824C24.772 6.88924 24.8697 6.59608 24.9674 6.40064C25.3095 5.61888 25.6026 5.13028 26.6775 4.9837C27.0684 4.93484 27.5081 4.59282 27.8013 4.83712C27.899 4.93484 27.7036 4.93484 27.557 4.93484C27.3616 5.03256 27.1661 5.13028 26.9707 5.27686C26.4332 5.57002 25.9935 6.00976 25.7492 6.49836C25.4072 7.03582 25.2606 7.671 25.2606 8.35504C25.2606 8.59934 25.4072 9.28338 25.5049 9.18566C25.7492 8.8925 25.7492 8.4039 25.9935 8.06188C26.7752 7.08468 27.4593 6.10748 28.1433 5.13028C28.4365 4.69054 29.2671 4.69054 30 4.7394C30.2443 4.7394 30.4886 4.78827 30.6352 4.78827C30.4397 4.83712 30.2443 4.93484 30 5.03256C28.8762 5.4723 27.9967 6.15634 27.6547 7.47556C27.6059 7.671 27.4104 8.79478 27.6547 8.94136C27.8013 9.03908 27.7524 8.6482 27.8013 8.55048C27.9967 8.20846 28.241 7.9153 28.5342 7.62214C29.0717 7.08468 29.5114 6.59608 30 6.05862C30.2443 5.76546 30.5375 5.37458 30.8306 5.08142C31.2215 4.69054 32.0521 4.78827 32.785 4.93484C32.9316 4.93484 33.1759 4.9837 33.2736 4.9837C33.127 5.03256 32.9316 5.08142 32.785 5.13028C31.9544 5.37458 31.2704 5.66774 30.6352 6.4495C30.342 6.88924 30.0489 7.37784 30 7.96416C30 8.06188 30 8.1596 30 8.30618V8.59934C30 8.74592 30.0489 8.79478 30.1466 8.59934C30.4886 7.81758 31.2704 7.47556 31.8567 6.98696C32.1498 6.74266 32.443 6.35178 32.785 6.00976C33.2248 5.52116 33.7622 5.03256 34.2997 5.13028C34.4463 5.13028 34.544 5.17914 34.6906 5.17914C35.1303 5.27686 35.6189 5.37458 36.0586 5.52116C35.57 5.52116 35.1303 5.61888 34.6906 5.7166C34.1531 5.86318 33.6156 6.15634 33.1759 6.64494C33.0293 6.84038 32.8827 6.98696 32.785 7.1824C32.5896 7.47556 32.443 7.76872 32.3941 8.06188C32.2964 8.30618 32.1498 9.1368 32.443 8.69706C32.5407 8.55048 32.6384 8.45276 32.785 8.30618C33.2736 7.81758 34.0065 7.57328 34.5928 7.08468C34.6417 7.08468 34.6417 7.08468 34.6906 7.03582C35.3257 6.49836 36.1564 5.52116 36.8893 5.7166C37.4756 5.86318 38.013 6.10748 38.5994 6.30292C37.1336 6.10748 35.8143 6.74266 35.0814 7.96416C34.9837 8.01302 34.8371 8.4039 34.6906 8.74592C34.5928 8.99022 34.4951 9.28338 34.5928 9.33224C34.6417 9.3811 34.6417 9.3811 34.6906 9.28338C34.7394 9.28338 34.7883 9.08794 34.8371 9.03908C34.9837 8.8925 35.1303 8.79478 35.2769 8.6482C35.8632 8.30618 36.4984 8.06188 37.0847 7.71986C37.671 7.4267 38.6482 6.4495 39.2345 6.49836C39.9186 6.59608 40.6026 7.08468 41.1889 7.37784C39.7231 7.08468 38.2573 7.4267 37.3779 8.55048C37.2313 8.74592 36.5961 9.67426 36.7915 9.91856C36.8404 10.0163 36.9381 9.77198 37.0358 9.67426C37.1824 9.52768 37.329 9.42996 37.5244 9.33224C38.0619 9.03908 38.7948 8.8925 39.3811 8.6482C40.0163 8.35504 40.9935 7.57328 41.6775 7.62214C42.3127 7.71986 43.0456 8.35504 43.5342 8.6482C42.1173 8.35504 40.7003 8.4039 39.6743 9.52768C39.5277 9.67426 38.8437 10.6026 38.9414 10.798C38.9902 10.8958 39.1368 10.6515 39.2345 10.6026C39.3811 10.5049 39.5766 10.3583 39.7231 10.2606C40.3583 10.0163 41.0912 10.0163 41.6775 9.77198C42.4104 9.57654 43.2899 9.03908 43.9739 8.99022C44.4625 8.94136 45.4397 10.0163 45.8306 10.3094C44.1205 9.72312 42.0196 9.72312 41.0912 11.5309C40.9935 11.6775 42.4104 11.3355 43.2899 11.2378C44.658 11.0912 45.7818 10.2606 46.8567 11.1889C47.1498 11.5309 47.5407 11.8241 47.8827 12.1173C46.6124 11.4821 45.1466 11.2378 43.8762 12.0684C43.5831 12.2638 42.6547 13.241 43.0945 13.0456C43.8274 12.6547 44.6091 12.8502 45.4397 12.8013C46.6612 12.7036 47.8827 12.1173 48.7134 13.0456C49.0065 13.3876 49.3485 13.7785 49.6417 14.1205C48.4691 13.4365 47.101 12.9967 45.7329 13.6808C45.4397 13.8762 44.4137 14.7557 44.9023 14.6091C45.7818 14.316 46.6612 14.6091 47.5896 14.6091C49.7394 14.658 50.1792 14.4625 51.3029 16.4169C50.228 15.5863 48.8599 14.8046 47.3941 15.4397C47.1987 15.4886 46.1726 16.0261 46.1726 16.2704C46.1726 16.3681 46.4169 16.1726 46.5147 16.1726C46.7101 16.1726 46.9055 16.1238 47.101 16.1726C47.8339 16.1726 48.4202 16.4169 49.1042 16.5635C49.8371 16.6612 51.2052 16.4658 51.645 17.0521C52.0847 17.5407 52.329 18.1759 52.6222 18.7133C51.645 17.7361 50.4235 16.9544 48.8599 17.3941C48.6156 17.4918 47.6384 17.8339 47.5896 18.127C47.5407 18.2247 47.785 18.0782 47.9316 18.0782C48.127 18.0293 48.3225 18.0782 48.5179 18.127C49.2508 18.2247 49.7883 18.5179 50.4723 18.7133C51.1075 18.8599 52.5244 18.8599 52.9153 19.3974C53.2573 19.886 53.4528 20.57 53.6482 21.1563C52.671 20.1791 51.7915 19.2997 50.1792 19.5928C49.9349 19.5928 48.8599 19.8371 48.8111 20.1303C48.8111 20.228 49.0554 20.1303 49.1531 20.1303C49.3485 20.1303 49.544 20.1791 49.7394 20.1791C50.4235 20.3746 50.9609 20.8143 51.5961 21.0098C52.2313 21.2541 53.5505 21.3029 53.8925 21.8892C54.2345 22.4267 54.3323 23.2085 54.4788 23.8436C53.4039 22.1335 51.7915 21.2541 49.7394 22.1335C50.8632 22.2313 51.4984 22.8664 52.4267 23.355C53.013 23.6971 54.3323 23.9414 54.6743 24.4788C54.9674 24.9674 54.9186 25.8958 55.0163 26.4821C54.2345 24.6743 52.4756 23.6971 50.4723 24.3811C51.5472 24.5765 52.1336 25.2606 53.013 25.8469C53.5505 26.1889 54.8209 26.5798 55.114 27.1173C55.4072 27.6547 55.2117 28.7296 55.2606 29.316C54.5766 27.4104 53.2085 26.1401 50.9609 26.5798C51.987 26.9218 52.4756 27.6547 53.3551 28.2899C53.8925 28.7785 54.9674 29.2182 55.3095 29.8534C55.5538 30.2443 55.2117 31.4658 55.2117 31.9544C54.7231 29.9511 53.4528 28.7785 51.2052 28.9251C52.1824 29.3648 52.6222 30.0977 53.4039 30.8795C53.9414 31.4658 54.7231 31.9055 55.1629 32.5407C55.2606 32.6873 55.114 32.8827 55.0652 33.0293C55.0163 33.6156 54.9186 34.1531 54.8209 34.7394C54.6254 32.6873 53.4039 31.1726 51.2541 31.1726C52.3779 31.8567 52.8665 33.1759 53.8437 34.202C54.3323 34.6905 54.7231 34.9837 54.6254 35.6677C54.5766 36.2052 54.3323 36.7915 54.2345 37.3778C53.9902 35.228 53.1596 33.8111 50.9121 33.5179C52.1824 34.4951 52.8665 36.1563 53.7459 37.4267C54.2345 38.2085 53.5994 39.1857 53.2573 40.0163C53.4039 37.8664 52.6222 36.1563 50.4723 35.7166C51.645 36.7427 52.1336 38.5993 52.8176 39.9186C53.2573 40.7492 52.5244 41.6287 52.0847 42.3616C52.3779 40.2606 51.7427 38.5993 49.7394 37.9153C50.6678 39.1368 51.0586 40.9446 51.5961 42.3616C51.8893 43.1922 51.1075 43.9739 50.57 44.658C51.1075 42.6059 50.7655 40.9446 48.8111 39.9186C49.3974 40.798 49.3485 41.7752 49.5928 42.8013C49.7394 43.4853 50.4235 44.658 50.0814 45.2932C49.8371 45.8306 49.3485 46.3192 48.9088 46.759C49.5928 44.8046 49.4463 43.1433 47.5896 42.0195C48.2736 43.1922 48.2736 45.2932 48.4691 46.7101C48.5668 47.5896 47.6384 48.127 47.0521 48.6645C47.785 46.8567 47.9316 45.1466 46.1726 43.8274C46.6124 45.0977 46.4169 47.0033 46.5635 48.4202C46.6124 49.4951 45.5863 49.886 44.8534 50.4723C45.9772 48.8599 46.2215 46.9055 44.658 45.4397C44.9023 46.4658 44.6091 47.3453 44.4625 48.3713C44.4137 49.0554 44.658 50.228 44.3648 50.8143C44.0717 51.3029 43.0456 51.6449 42.557 51.9381C43.8274 50.3746 44.2183 48.6156 42.899 46.9544C43.0456 48.0782 42.6547 48.8599 42.4104 49.8371C42.2639 50.6189 42.3127 51.4495 42.0684 52.2313C42.0196 52.3778 41.8241 52.329 41.6775 52.4267C41.1401 52.671 40.6026 52.9153 40.114 53.1596C41.531 51.7427 42.1661 50.0326 40.8958 48.2248C41.0424 49.8371 40.114 51.4495 39.7231 52.9153C39.4788 53.8925 38.2573 53.7459 37.4267 54.1857C39.1368 53.013 39.9674 51.3029 38.9414 49.2997C38.9414 50.4723 38.2085 51.2052 37.8176 52.1824C37.6222 52.7199 37.4267 53.2573 37.1824 53.7948C36.8404 54.6254 35.7166 54.6743 34.886 54.8208C36.5472 53.7459 37.5244 52.2801 36.7915 50.1792C36.5472 51.5961 35.3746 53.013 34.6906 54.2345C34.6417 54.3322 34.6417 54.3811 34.5928 54.4788C34.2508 55.0651 33.5179 55.114 32.785 55.1629C32.5407 55.1629 32.3453 55.2117 32.1987 55.2117C32.3941 55.114 32.5407 55.0163 32.785 54.9186C34.202 54.0879 34.9837 52.671 34.4951 50.7655C34.1531 51.7915 33.4202 52.6221 32.785 53.5016C32.5896 53.6971 32.443 53.8925 32.2964 54.1368C32.0521 54.6254 31.8567 55.114 31.3192 55.2117C30.8795 55.3094 30.4397 55.2606 30 55.3094C29.8046 55.3094 29.6091 55.3094 29.4137 55.2606C29.6091 55.2117 29.8046 55.114 30 55.0163C31.5635 54.3811 32.5407 53.1596 32.2964 51.1564C31.8078 52.1335 31.1726 52.5733 30.3909 53.4039C30.2443 53.5505 30.1466 53.7459 30 53.8925C29.2671 54.772 29.0717 55.3094 27.4104 55.1629C27.1661 55.1629 26.9707 55.0651 26.7264 55.0651C28.6808 54.7231 30 53.355 29.9023 51.2541C29.5114 52.1335 28.7785 52.4756 28.0456 53.1107C27.4104 53.7459 26.5798 55.0651 25.6515 54.9186C25.4072 54.8697 25.1629 54.8208 24.9674 54.772C24.6254 54.7231 24.2834 54.6254 23.9902 54.5277C24.3323 54.4788 24.6254 54.4788 24.9674 54.3811C26.4821 53.9902 27.557 53.013 27.7036 51.1564C27.0684 52.0358 26.1889 52.3778 25.3583 52.9153C25.2606 53.013 25.114 53.1596 24.9674 53.2573C24.43 53.7459 23.7948 54.43 23.3062 54.3811C22.671 54.3322 21.987 53.9902 21.4495 53.7459C23.0619 53.7459 24.3323 53.1596 24.9674 51.9381C25.114 51.5961 25.2606 51.2052 25.3095 50.7166C25.2117 50.8632 25.0652 50.9609 24.9674 51.1075C24.0391 51.8892 22.9642 52.1824 21.987 52.9153C21.645 53.1596 21.1075 53.5505 20.7166 53.5016C20.2769 53.4528 19.7883 53.1596 19.3485 52.9153C19.2997 52.9153 19.1531 52.8664 19.1042 52.8176C18.6645 52.6221 18.9088 52.7199 19.1531 52.7199C21.1075 52.9642 22.7199 51.9381 23.2085 50.1303C22.2313 51.1075 20.7655 51.2541 19.5928 51.8404C19.2508 52.0358 18.6645 52.4267 18.2736 52.4267C17.8827 52.329 17.443 51.9381 17.101 51.6938C16.9544 51.6938 16.9055 51.5961 16.8078 51.5961C16.4169 51.3518 16.5147 51.3518 16.7101 51.4495C18.6156 51.8892 20.3746 51.0098 21.0098 49.2997C19.886 50.0814 18.4202 50.1303 17.2476 50.6189C16.9055 50.7655 16.3681 51.1075 15.9772 51.0586C15.6352 51.0098 15.1466 50.4723 14.8046 50.228C14.7068 50.1303 14.6091 50.0814 14.5114 49.9837C13.9251 49.544 14.2671 49.7394 14.5603 49.886C16.3681 50.57 18.1759 49.886 19.0554 48.1759C18.127 48.8111 17.101 48.6645 16.0261 48.9088C15.3909 49.0065 14.9023 49.202 14.316 49.3485C13.5831 49.4951 11.5798 47.5896 12.6547 48.1759C14.316 49.0554 16.0749 48.2736 17.101 46.9055C15.8795 47.443 13.8762 47.3453 12.5081 47.4919C11.9707 47.5896 11.9218 47.5896 11.5309 47.2476C11.1401 46.9544 10.798 46.4658 10.456 46.1238C10.3583 45.9772 10.3094 45.8795 10.456 45.9772C12.215 47.0033 13.9739 46.9544 15.342 45.342C13.9739 45.7818 12.215 45.4886 10.7003 45.4886C9.77199 45.5375 9.13681 44.5603 8.79479 43.7785C8.69707 43.5831 8.84365 43.8274 8.94137 43.8274C10.5049 45.0977 12.3127 45.2443 13.8274 43.8762C12.4593 44.0717 11.2866 43.5831 9.86971 43.4365C9.33225 43.4365 8.69707 43.4365 8.35505 43.0945C8.30619 42.9967 6.88925 40.8958 7.67101 41.6287C9.03909 42.9479 10.8958 43.1433 12.4104 42.0195C11.0423 42.215 9.82085 41.4332 8.50163 41.1889C8.01303 41.1401 7.37785 41.0912 7.13355 40.7003C6.98697 40.5537 6.05863 38.5016 6.49837 39.1368C7.67101 40.6026 9.62541 40.9935 11.2378 40.0163C9.77199 40.0163 8.74593 39.1368 7.42671 38.7948C6.98697 38.6971 6.30293 38.5993 6.10749 38.2573C5.91205 38.013 5.03257 35.57 5.71661 36.5472C6.74267 38.1107 8.45277 38.8436 10.2606 38.013C8.84365 37.7687 7.86645 36.8892 6.64495 36.3518C6.25407 36.2052 5.52117 35.9609 5.32573 35.6189C5.13029 35.228 5.13029 34.5928 5.03257 34.202C5.03257 34.1042 5.03257 34.0065 5.03257 33.8599C4.93485 33.3713 5.03257 33.6645 5.08143 33.8599C5.96091 35.6189 7.62215 36.3029 9.52769 35.7655C8.20847 35.4234 7.23127 34.3485 6.05863 33.7622C5.71661 33.6156 5.03257 33.3225 4.88599 32.9805C4.69055 32.5896 4.78827 31.9544 4.73941 31.5147C4.73941 31.4169 4.73941 31.2704 4.73941 31.1726C4.69055 30.5863 4.78827 30.9283 4.88599 31.2215C5.57003 32.9316 6.98697 33.9576 9.03909 33.5179C7.71987 33.0782 6.88925 31.9544 5.81433 31.1726C5.52117 30.9772 4.88599 30.5863 4.69055 30.2443C4.49511 29.9023 4.69055 29.2671 4.73941 28.8762ZM4.54397 28.4365C4.49511 28.9251 4.59283 29.9023 4.29967 30.2932C3.71336 31.1238 2.9316 31.8567 2.39414 32.6873C1.75896 33.4202 1.51466 34.3485 0.684039 34.886C0.19544 35.228 1.75896 34.9348 2.10098 34.7394C2.83388 34.2997 3.51792 33.7622 3.95766 33.0293C4.20196 32.6873 4.29967 32.3453 4.34854 31.9544C4.3974 31.8078 4.3974 31.6612 4.44625 31.4658C4.44625 31.4169 4.44625 31.1726 4.49511 31.2215C4.64169 31.3192 4.54397 32.5407 4.54397 32.785C4.64169 33.0293 4.20196 33.6156 4.00652 33.8599C3.37134 34.8371 2.73616 35.6189 2.34528 36.6449C2.1987 37.0358 2.05212 37.4267 1.75896 37.7687C1.61238 37.8664 1.17264 38.1596 1.12378 38.3062C1.07492 38.4528 1.36808 38.2573 1.51466 38.2573C2.73616 38.013 3.71336 37.2801 4.29967 36.1563C4.54397 35.7166 4.69055 35.228 4.78827 34.6905C4.78827 34.544 4.78827 34.3974 4.78827 34.2508C4.78827 34.1042 4.69055 33.8111 4.73941 33.9088C4.78827 34.2508 5.17915 35.228 5.03257 35.57C4.93485 36.0098 4.64169 36.4495 4.44625 36.8404C3.9088 37.8176 3.46906 38.6971 3.12704 39.772C2.98046 40.3094 2.73616 40.7492 2.29642 41.1401C2.10098 41.3844 3.22476 40.9446 3.51792 40.798C4.54397 40.1629 5.42345 38.7948 5.37459 37.6221C5.37459 37.4756 5.22801 36.8404 5.32573 36.6938C5.42345 36.5472 5.42345 37.0358 5.47231 37.2313C5.52117 37.5244 5.61889 37.7687 5.71661 38.013C5.91205 38.5993 5.32573 39.4788 5.08143 40.0163C4.54397 41.3844 4.3974 42.8502 3.56678 44.0717C3.51792 44.1205 4.44625 43.7785 4.73941 43.5831C5.66775 42.9479 6.40065 41.5798 6.40065 40.456C6.40065 40.114 6.15635 39.6743 6.25407 39.3811C6.25407 39.2345 6.30293 39.5765 6.35179 39.7231C6.40065 39.9186 6.49837 40.114 6.59609 40.3094C6.88925 40.8958 6.64495 41.4332 6.49837 42.1173C6.15635 43.2899 6.15635 44.9511 5.71661 46.1238C5.61889 46.4169 5.03257 47.101 5.47231 46.9055C7.13355 46.0749 7.96417 44.1205 7.47557 42.2638C7.13355 41.2378 8.15961 43.1433 8.11075 43.6808C7.96417 44.658 7.71987 45.5863 7.62215 46.6124C7.62215 47.5896 7.71987 48.4202 7.32899 49.2997C7.03583 49.886 7.62215 49.2997 7.76873 49.1531C8.64821 48.4202 9.08795 47.4919 9.18567 46.3681C9.18567 45.7818 9.18567 45.342 8.99023 44.9023C8.94137 44.658 8.59935 44.0717 8.79479 44.316C9.13681 44.658 9.42997 45.0977 9.67427 45.4886C9.82085 45.6352 9.67427 46.1726 9.67427 46.3681C9.62541 47.7362 9.77199 49.202 9.67427 50.5212C9.67427 50.8632 9.67427 51.2052 9.57655 51.4984C9.52769 51.5961 9.33225 51.8404 9.42997 51.7915C10.5049 51.6938 11.0423 49.4951 11.0912 48.7134C11.1401 47.9316 10.4072 46.4169 10.6515 46.6612C12.0195 47.9316 11.3844 50.1303 11.9218 51.7915C12.1173 52.2801 12.1661 52.7687 12.1173 53.3062C12.1173 53.5016 11.9218 54.1368 12.0684 53.9414C12.1661 53.7948 12.3127 53.6971 12.4104 53.5505C13.4365 52.4267 13.4365 50.3746 12.7524 49.1042C12.7036 48.9577 12.6059 48.8111 12.5081 48.7134C12.4104 48.6156 12.1661 48.3225 12.2638 48.4202C12.8013 48.6645 13.4365 49.3974 13.5831 50.1303C13.8274 51.1075 13.9251 52.1335 14.1694 53.013C14.3648 53.6482 14.658 54.1857 14.7068 54.8208C14.7068 55.0163 14.5603 55.7003 14.658 55.798C14.7068 55.9446 14.8046 55.5537 14.9023 55.456C15.0489 55.3094 15.1466 55.1629 15.1954 55.0163C15.684 54.1368 15.684 53.013 15.4397 51.987C15.2932 51.4007 15.0489 51.0098 14.658 50.57C14.5114 50.4235 14.1205 50.1303 14.316 50.1792C15.1466 50.228 15.8306 51.4984 16.0261 52.1824C16.2704 53.013 16.4658 53.8925 16.759 54.7231C17.0521 55.456 17.443 55.9935 17.443 56.9218C17.443 57.7036 18.127 56.0423 18.1759 55.5537C18.3225 54.6254 18.0782 53.7459 17.6873 52.9642C17.4919 52.6221 16.3681 51.6449 16.8567 51.8892C17.6384 52.2801 17.9805 52.4756 18.3225 53.2085C18.9088 54.5765 19.7394 55.8958 20.2769 57.2638C20.3746 57.4593 20.4723 57.6547 20.5212 57.899C20.5212 58.0456 20.5212 58.5342 20.6189 58.4853C21.7915 57.3616 20.7166 54.7231 20.0326 53.8925C19.8371 53.5993 19.4951 53.355 19.202 53.1596C19.202 53.1596 19.1531 53.1596 19.1531 53.1107C19.886 53.4528 20.4723 53.5993 20.9121 54.3322C21.5961 55.5049 22.1824 56.5798 22.9642 57.7036C23.2085 58.0456 23.4528 58.4365 23.5505 58.8274C23.5994 58.9739 23.5505 59.3648 23.6482 59.316C23.9902 58.9739 24.0391 57.9479 23.9902 57.4593C23.8925 56.5309 23.4039 55.3583 22.671 54.772C22.3779 54.5765 21.8404 54.3811 21.5961 54.1368C21.5961 54.0879 21.7427 54.1368 21.7915 54.1857C21.9381 54.1857 22.0847 54.2834 22.2313 54.3322C23.013 54.6254 23.2085 54.6254 23.6971 55.3094C24.088 55.8958 24.5277 56.3844 24.9674 56.9218C25.456 57.5081 25.9446 58.0945 26.3844 58.6808C26.5798 58.9739 26.9707 59.8046 26.9707 59.7068C27.3616 57.899 26.6287 56.1889 25.0163 55.2117C25.0163 55.2117 25.0163 55.2117 24.9674 55.2117C24.772 55.0651 24.6254 55.0163 24.4788 54.9674C24.43 54.9186 24.3323 54.9186 24.2345 54.8697C24.5277 54.9186 24.7231 54.9674 24.9674 55.0163C26.2378 55.3583 26.5798 56.2378 27.7036 57.3127C28.5831 58.1922 29.4625 58.8274 30 59.8534C30 59.9023 30.0489 59.9511 30.0977 60C30.2443 59.316 30.1954 58.7296 30 58.1433C29.7557 57.4104 29.316 56.7752 28.7785 56.2866C28.4853 56.0423 28.1922 55.798 27.899 55.7003C27.557 55.5537 26.7752 55.3094 27.1661 55.4072C27.7036 55.456 28.3388 55.3583 28.7785 55.6515C29.2182 55.9446 29.6091 56.3355 30 56.7752C30.1954 56.9707 30.3909 57.1661 30.6352 57.3616C31.2704 57.899 32.0033 58.241 32.5896 58.8274C32.6873 58.8274 32.6873 58.8762 32.785 58.9739C33.0293 59.316 33.4202 59.8534 33.4202 59.658C33.4202 59.316 33.4202 58.9739 33.3225 58.6808C33.2248 58.241 33.0293 57.7524 32.785 57.4104C32.1987 56.5309 31.2704 55.8958 30.1954 55.6515C30.1466 55.6026 30.0489 55.6026 30 55.5537C29.8046 55.5537 29.8534 55.5049 30 55.5049C30.342 55.456 31.4658 55.5537 31.7101 55.7492C32.0521 55.9935 32.443 56.2866 32.785 56.5309C33.2248 56.873 33.6645 57.215 34.1531 57.5081C34.2997 57.6059 34.4951 57.7524 34.6906 57.8502C35.2769 58.1433 35.8632 58.4853 36.3518 59.0717C36.7427 59.6091 36.4495 58.7785 36.4495 58.4853C36.3518 57.4104 35.6189 56.6775 34.6906 56.1401C34.1042 55.798 33.4202 55.5537 32.785 55.456C32.6873 55.456 32.6873 55.4072 32.5896 55.4072C32.6873 55.4072 32.6873 55.4072 32.785 55.4072C33.5179 55.3094 34.1531 55.456 34.6906 55.6515C35.7166 56.0423 36.5472 56.7264 37.7687 57.1661C38.2573 57.3616 38.7459 57.5081 39.1368 57.8502C39.2345 57.9479 39.6743 58.3876 39.7231 58.3388C39.772 58.241 39.6254 57.9479 39.6254 57.8502C38.9902 55.8958 37.329 55.0163 35.228 55.0163C35.8632 54.8208 36.5472 54.5277 37.1824 54.772C38.3062 55.2606 39.3811 55.8958 40.6026 56.1889C41.0912 56.2866 41.5798 56.4332 42.0196 56.7264C42.1661 56.8241 42.6059 57.2638 42.6547 57.1661C42.6547 57.0684 42.557 56.7752 42.5082 56.6775C41.8241 54.8208 39.8697 54.1368 37.9153 54.2834C38.5016 54.0391 39.1857 53.6482 39.8209 53.8436C40.9935 54.2345 42.0684 54.7231 43.3388 54.9186C43.8762 55.0163 44.316 55.0651 44.7557 55.3094C44.9511 55.4072 45.4397 55.7492 45.4397 55.7003C45.4397 55.5537 45.342 55.3094 45.2443 55.2117C44.3648 53.4039 42.4104 52.9153 40.456 53.2573C40.8958 53.0619 41.4332 52.671 41.9218 52.5733C42.7524 52.4267 43.9739 53.013 44.8534 53.1596C45.8306 53.355 46.8567 53.2085 47.6873 53.5505C48.3225 53.8436 48.3225 53.7459 47.8827 53.2573C46.759 51.6938 44.5114 51.2052 42.8013 52.0847C43.1433 51.8892 43.9251 51.2052 44.316 51.2052C45.684 51.2052 47.0521 51.6938 48.5179 51.4495C49.2997 51.3518 50.9121 51.987 50.4235 51.4007C49.0065 49.7394 47.0521 49.7394 45.1466 50.5212C45.5375 50.228 45.9283 49.9837 46.3192 49.6417C46.5147 49.4951 46.5147 49.2997 46.759 49.2997C47.8339 49.1531 49.0554 49.3485 50.1303 49.1531C51.0586 49.0065 51.987 48.7622 52.9153 49.0065C53.3551 49.1531 53.1108 49.0065 52.9153 48.7622C51.4495 47.101 48.8599 47.6384 47.2964 48.7622C47.6384 48.4202 47.9805 48.1759 48.2736 47.8339C48.3713 47.6873 48.6156 47.3453 48.6156 47.5407C48.6156 47.2476 49.1531 47.2964 49.3974 47.2476C49.9349 47.1987 50.4235 47.1498 51.0098 47.101C52.1336 46.9544 53.1108 46.4658 54.2345 46.4658C54.4788 46.4169 55.114 46.5147 55.114 46.4658C54.9186 45.8795 53.5016 45.4886 52.9642 45.3909C51.3518 45.2443 50.4235 45.8795 49.3485 46.7101C49.6906 46.2704 50.0326 45.5863 50.4235 45.2932C51.0098 44.9023 52.0847 44.8534 52.7687 44.658C53.8437 44.4137 54.8209 43.8274 55.9446 43.6319C56.0424 43.5831 56.2378 43.5831 56.4332 43.5831C56.531 43.5831 56.8241 43.6808 56.7753 43.5831C56.531 43.0456 55.0652 42.7524 54.4788 42.8013C52.7687 42.8502 51.8893 43.6319 50.8143 44.8046C51.1564 44.2671 51.5472 43.4365 51.9381 42.9967C52.6222 42.3616 54.088 42.2638 54.9674 41.9218C56.0424 41.4332 56.7753 40.7003 58.0945 40.7003C56.0424 39.4788 53.8437 40.3583 52.4756 42.1661C52.7199 41.6775 52.9153 40.9446 53.2573 40.5537C53.8437 39.8208 55.3095 39.6254 56.1401 39.1368C57.1661 38.5505 57.8013 37.8664 59.0717 37.7199C57.0196 36.7915 54.6743 37.5733 53.6482 39.5765C53.7948 39.1857 53.9902 38.355 54.2345 38.013C54.5766 37.5244 55.5049 37.1335 55.9935 36.8404C57.2639 36.1075 58.2411 34.7883 59.7557 34.4462C57.4104 33.6645 55.3583 35.0326 54.5277 37.0847C54.6743 36.5472 54.7231 35.8143 55.0163 35.2769C55.456 34.4951 56.7753 34.0065 57.4593 33.3225C58.3388 32.4919 58.9251 31.7101 60 31.3192C58.2411 30.8306 56.6287 31.7101 55.6515 33.127C55.4072 33.4691 55.3583 33.9088 55.1629 34.2997C55.2117 33.7622 55.3095 33.1759 55.4072 32.6384C55.5049 31.9544 57.0196 31.0261 57.4593 30.5375C58.3388 29.5603 58.8274 28.5831 60 27.9479C57.5082 27.7036 55.7981 29.4137 55.456 31.7101C55.5049 31.1238 55.5538 30.5863 55.5538 29.9511C55.5538 29.1694 56.873 28.241 57.3616 27.6059C58.0945 26.5798 58.4854 25.5537 59.6091 24.8208C57.7525 24.8208 56.3355 25.8958 55.7003 27.557C55.5538 27.9479 55.6026 28.4365 55.456 28.8274C55.456 28.2899 55.2117 27.3127 55.5049 26.873C55.9446 26.0912 56.4821 25.4072 56.9218 24.6743C57.557 23.5993 57.8013 22.4756 58.8274 21.5961C56.4332 21.8892 55.2117 23.7948 55.2117 26.2378C55.1629 25.6515 54.8209 24.6743 55.0163 24.1368C55.3095 23.355 55.7981 22.6221 56.1889 21.7915C56.7753 20.6677 56.8241 19.4951 57.8502 18.6156C56.1889 18.9576 54.772 20.3257 54.5766 22.0847C54.5277 22.5244 54.6254 22.9642 54.6254 23.355C54.4788 22.8664 54.3323 22.329 54.1857 21.8404C54.1368 20.9609 54.8209 19.886 55.114 19.0554C55.5538 17.8339 55.5538 16.6612 56.3355 15.5863C54.1857 16.4169 53.1596 18.6156 53.8437 20.912C53.5994 20.228 53.013 19.4462 53.2085 18.7133C53.5994 17.0521 53.7948 14.4137 54.6743 12.899C52.8665 13.7785 51.7915 15.8306 52.5244 17.9316C52.7687 18.6645 52.329 17.6384 52.1824 17.3941C51.7915 16.6612 51.8404 16.1726 51.987 15.342C52.2801 13.7785 52.0847 11.7264 52.7199 10.3583C50.8143 11.5798 50.4235 13.6319 51.1564 15.7329C50.8632 15.342 50.57 14.9023 50.2769 14.5114C50.2769 14.5114 50.2769 14.5114 50.3257 14.5114C50.0814 14.3648 50.228 13.2899 50.228 12.9479C50.3257 11.2866 49.8371 9.42996 50.3746 7.96416C48.6156 9.42996 48.3225 11.7264 49.5928 13.6808C49.2508 13.2899 48.6645 12.8502 48.4202 12.3616C48.0293 11.5798 48.2736 10.114 48.1759 9.18566C48.0293 8.06188 47.6384 7.13354 47.8827 5.91204C46.3192 7.32898 46.1726 10.114 47.7362 11.6287C47.2964 11.2866 46.7101 10.8958 46.4169 10.456C45.9283 9.72312 46.0749 8.25732 45.8306 7.37784C45.5375 6.25406 45.0977 5.42344 45.2443 4.15308C43.8762 5.76546 43.8762 8.35504 45.5863 9.82084C45.2932 9.57654 44.316 9.08794 44.2183 8.79478C43.8762 7.96416 43.7296 6.98696 43.3876 6.10748C42.899 4.9837 42.2639 4.05536 42.2639 2.63843C40.8469 4.54396 41.6775 6.98696 43.4365 8.35504C42.9967 8.06188 41.9707 7.71986 41.7264 7.23126C41.3355 6.4495 41.0912 5.57002 40.7003 4.78827C40.1629 3.61562 39.4788 2.83387 39.2834 1.46579C38.2573 3.46904 38.9902 5.76546 40.8469 6.9381C40.3583 6.74266 39.8697 6.49836 39.3811 6.30292C38.9414 6.30292 38.1596 4.05536 37.9642 3.81107C37.329 2.68729 36.4495 2.00325 36.2052 0.684029C35.2769 2.73615 36.4495 4.7394 38.1596 5.86318C37.5244 5.61888 36.8404 5.57002 36.4007 5.03256C35.8143 4.2508 35.3746 3.37133 34.6906 2.63843C34.6417 2.58957 34.5928 2.49185 34.4951 2.44299C33.8111 1.66123 33.2248 1.17263 32.9316 0.195431C32.8339 0.439728 32.785 0.684029 32.785 0.928329C32.7362 1.22149 32.7362 1.51465 32.785 1.75895C32.9316 2.93159 33.7134 3.95765 34.6906 4.64169C34.9837 4.78827 35.2769 4.9837 35.6189 5.13028C35.3257 5.03256 34.9837 4.93484 34.6906 4.93484C34.4463 4.88598 34.202 4.83712 34.0065 4.83712C33.7134 4.83712 33.0293 3.81107 32.785 3.46904C32.7362 3.42019 32.6873 3.37133 32.6873 3.32246C31.8567 2.29641 30.5863 1.61237 30 0.439728C29.9023 0.293148 29.8534 0.195431 29.7557 -1.14441e-05C29.6091 0.830608 29.7068 1.61237 30 2.24755C30.4886 3.37133 31.5635 4.20195 32.6873 4.64169C31.2704 4.64169 30.7329 4.20195 30 3.46904C29.7557 3.22475 29.4625 2.93159 29.1694 2.58957C28.1922 1.75895 27.1173 1.41693 26.4821 0.244289C26.4821 2.58957 27.8013 3.95765 30 4.49511C29.7068 4.49511 29.4137 4.49511 29.0717 4.54396C28.9739 4.54396 28.8762 4.54396 28.7785 4.54396C28.6319 4.54396 28.5342 4.54396 28.4853 4.54396C28.0945 4.49511 27.6059 3.95765 27.3616 3.7622C26.5798 3.22475 25.7492 2.73615 24.9674 2.19869C24.3323 1.80781 23.7948 1.36807 23.3062 0.78175C23.5016 2.10097 24.0391 3.12703 24.9674 3.81107C25.5538 4.2508 26.3355 4.54396 27.215 4.69054C26.7752 4.7394 26.1401 4.93484 25.7492 4.88598C25.5049 4.83712 25.2117 4.7394 24.9674 4.59282C24.2834 4.2508 23.5505 3.61562 22.9642 3.32246C21.9381 2.78501 21.0098 2.58957 20.1303 1.71009C20.3746 3.95765 22.329 5.03256 24.5766 5.08142C24.0391 5.228 23.5505 5.37458 23.0619 5.4723C22.4756 5.61888 21.0098 4.54396 20.4723 4.29966C19.2997 3.7622 18.1759 3.7622 17.1498 2.83387C17.6873 4.34853 18.6156 5.37458 20.2769 5.81432C20.7166 5.9609 21.1564 5.76546 21.645 5.86318C22.1824 5.86318 21.2052 6.05862 21.0098 6.15634C20.2769 6.40064 20.0326 6.25406 19.2997 6.00976C17.785 5.57002 15.5863 5.37458 14.2182 4.49511C14.9023 5.86318 15.9283 6.84038 17.6384 7.03582C18.1759 7.08468 18.6156 6.84038 19.1531 6.84038C19.7394 6.84038 18.6645 7.13354 18.4691 7.23126C17.8339 7.57328 17.5407 7.47556 16.8078 7.32898C15.2932 7.03582 12.9967 7.03582 11.6287 6.30292C12.1661 7.4267 13.1433 8.11074 14.3648 8.35504C15 8.50162 15.6352 8.50162 16.2704 8.30618C16.4169 8.25732 16.5147 8.1596 16.7101 8.1596C16.759 8.1596 16.9544 8.01302 16.9055 8.11074C16.8567 8.30618 16.6124 8.30618 16.4169 8.4039C15.1954 9.1368 14.316 8.79478 12.7524 8.69706C11.4332 8.59934 10.3094 8.8925 9.18567 8.35504C9.86971 9.42996 10.8958 10.0163 12.1661 10.1629C12.9967 10.2606 14.9023 9.42996 14.2671 9.91856C13.9251 10.1629 13.5831 10.6026 13.1433 10.6515C12.3127 10.7492 11.3844 10.6515 10.5049 10.7492C9.18567 10.8469 8.11075 11.1889 6.88925 10.8469C8.20847 12.3616 10.5049 12.7036 12.215 11.6287C12.2638 11.5798 12.4104 11.4332 12.5081 11.3844C12.7036 11.3355 12.3616 11.5798 12.3127 11.5798C12.0684 11.8241 11.8241 12.0684 11.5798 12.3127C11.1401 12.8013 10.0651 12.7524 9.42997 12.8013C7.86645 12.9967 6.49837 13.7296 4.98371 13.3876C6.15635 14.6091 8.35505 15 9.82085 14.0228C10.1629 13.7785 10.7492 13.2899 10.456 13.5831C10.3094 13.7296 9.57655 14.8534 9.57655 14.658C9.57655 14.8046 8.45277 14.9511 8.25733 15C6.64495 15.342 5.13029 16.2704 3.37134 16.1238C4.29967 16.9055 5.42345 17.1498 6.74267 16.9055C7.37785 16.7589 7.86645 16.5635 8.35505 16.1238C8.45277 16.0261 8.69707 15.8306 8.79479 15.7329C8.20847 16.3681 8.25733 16.8567 7.42671 17.1987C6.49837 17.5896 5.42345 17.785 4.54397 18.3225C3.71336 18.7622 3.02932 19.2019 2.00326 19.2019C3.32248 19.9837 4.88599 19.9348 6.25407 19.1531C6.64495 18.9088 6.88925 18.469 7.28013 18.1759C7.71987 17.8339 7.13355 18.6156 7.03583 18.8599C6.74267 19.4462 6.40065 19.5928 5.76547 19.9348C4.29967 20.6189 2.73616 21.9381 1.02606 22.1824C2.39414 22.8664 3.95766 22.6221 5.17915 21.7427C5.61889 21.4495 5.76547 21.0098 6.15635 20.6677C6.49837 20.3746 6.00977 21.1563 5.96091 21.4006C5.71661 22.0847 5.37459 22.2313 4.78827 22.6221C3.4202 23.4528 1.90554 25.0163 0.29316 25.5049C1.90554 25.8469 3.22476 25.6515 4.44625 24.5277C4.83713 24.0879 4.98371 23.6482 5.27687 23.2085C5.66775 22.7687 5.22801 23.7459 5.17915 23.9902C4.98371 24.7231 4.73941 24.9186 4.1531 25.3094C2.88274 26.3355 1.51466 27.9967 0 28.5831C1.61238 28.9251 2.98046 28.4365 4.00652 27.2638C4.34854 26.873 4.44625 26.3844 4.69055 25.9935C5.03257 25.5049 4.69055 26.4821 4.69055 26.7264C4.54397 27.4593 4.29967 27.7036 3.81108 28.1922C2.58958 29.4137 1.51466 31.1238 0.0488599 31.9544C1.80782 32.101 3.46906 31.1726 4.20196 29.6091C4.29967 29.4137 4.34854 29.1694 4.3974 28.9251C4.44625 28.7296 4.54397 28.1922 4.54397 28.4365Z" fill="white"/>
</svg>
